# Blender v2.79 (sub 0) OBJ File: ''
# www.blender.org
mtllib ArrowTracker.mtl
o Cube
v 0.156579 -0.626430 -0.000000
v 0.056579 -0.760594 0.044721
v 0.056579 -0.760594 -0.044721
v -0.156579 -0.626430 -0.000000
v -0.056579 -0.760594 -0.044721
v -0.056579 -0.760594 0.044721
v 0.056579 0.345910 -0.597973
v 0.056579 0.435353 -0.542695
v 0.156579 0.335353 -0.480891
v 0.156579 0.335353 0.480892
v 0.056579 0.435353 0.542695
v 0.056579 0.345910 0.597974
v -0.156579 0.335353 0.480891
v -0.056579 0.345910 0.597973
v -0.056579 0.435353 0.542695
v -0.056579 0.345910 -0.597973
v -0.156579 0.335353 -0.480891
v -0.056579 0.435353 -0.542695
vn -1.0000 0.0000 -0.0000
vn 1.0000 0.0000 0.0000
vn 0.0000 1.0000 0.0000
vn -0.0000 -0.4472 0.8944
vn 0.8018 -0.5976 -0.0000
vn -0.8018 -0.5976 0.0000
vn 0.7246 0.3623 -0.5862
vn 0.7246 0.3623 0.5862
vn -0.7246 0.3623 0.5862
vn -0.7246 0.3623 -0.5862
vn 0.7071 -0.3162 -0.6325
vn -0.7071 -0.3162 0.6325
vn 0.7071 0.7071 0.0000
vn 0.0000 0.5257 -0.8507
vn -0.0000 0.5257 0.8507
vn -0.7071 0.7071 -0.0000
vn 0.0000 -1.0000 0.0000
vn 0.7071 -0.3162 0.6325
vn -0.7071 -0.3162 -0.6325
vn 0.0000 -0.4472 -0.8944
usemtl Material
s off
f 4//1 13//1 17//1
f 1//2 9//2 10//2
f 8//3 18//3 15//3 11//3
f 2//4 12//4 14//4 6//4
f 1//5 2//5 3//5
f 4//6 5//6 6//6
f 7//7 8//7 9//7
f 10//8 11//8 12//8
f 13//9 14//9 15//9
f 16//10 17//10 18//10
f 3//11 7//11 9//11 1//11
f 6//12 14//12 13//12 4//12
f 8//13 11//13 10//13 9//13
f 7//14 16//14 18//14 8//14
f 11//15 15//15 14//15 12//15
f 15//16 18//16 17//16 13//16
f 2//17 6//17 5//17 3//17
f 1//18 10//18 12//18 2//18
f 4//19 17//19 16//19 5//19
f 7//20 3//20 5//20 16//20
