# Blender v2.79 (sub 0) OBJ File: ''
# www.blender.org
mtllib Tank.mtl
o Cube_Cube.001
v -0.670824 -0.260051 0.802608
v -0.670824 0.370070 0.952212
v -0.670824 -0.333830 -0.763387
v -0.670824 0.074954 -1.225363
v 0.662510 -0.260051 0.802608
v 0.662510 0.370070 0.952212
v 0.662510 -0.333830 -0.763387
v 0.662510 0.074954 -1.225363
v 0.689725 -0.188275 -0.013585
v 0.689725 -0.597791 0.156042
v 0.689725 -0.767419 0.565559
v 0.689725 -0.597791 0.975076
v 0.689725 -0.188275 1.144703
v 0.689725 0.221242 0.975076
v 0.689725 0.390869 0.565559
v 0.689725 0.221242 0.156042
v 0.823059 -0.597791 0.156042
v 0.823059 -0.188275 -0.013585
v 0.823059 -0.767419 0.565559
v 0.823059 -0.597791 0.975076
v 0.823059 -0.188275 1.144703
v 0.823059 0.221242 0.975076
v 0.823059 0.390869 0.565559
v 0.823059 0.221242 0.156042
v 0.689725 -0.272683 -1.191231
v 0.689725 -0.606710 -1.052872
v 0.689725 -0.745069 -0.718844
v 0.689725 -0.606710 -0.384817
v 0.689725 -0.272683 -0.246458
v 0.689725 0.061345 -0.384817
v 0.689725 0.199704 -0.718844
v 0.689725 0.061345 -1.052872
v 0.823059 -0.606710 -1.052872
v 0.823059 -0.272683 -1.191231
v 0.823059 -0.745069 -0.718844
v 0.823059 -0.606710 -0.384817
v 0.823059 -0.272683 -0.246458
v 0.823059 0.061345 -0.384817
v 0.823059 0.199704 -0.718844
v 0.823059 0.061345 -1.052872
v -0.810275 -0.188275 -0.013585
v -0.810275 -0.597791 0.156042
v -0.810275 -0.767419 0.565559
v -0.810275 -0.597791 0.975076
v -0.810275 -0.188275 1.144703
v -0.810275 0.221242 0.975076
v -0.810275 0.390869 0.565559
v -0.810275 0.221242 0.156042
v -0.676942 -0.597791 0.156042
v -0.676942 -0.188275 -0.013585
v -0.676942 -0.767419 0.565559
v -0.676942 -0.597791 0.975076
v -0.676942 -0.188275 1.144703
v -0.676942 0.221242 0.975076
v -0.676942 0.390869 0.565559
v -0.676942 0.221242 0.156042
v -0.810275 -0.272683 -1.191231
v -0.810275 -0.606710 -1.052872
v -0.810275 -0.745069 -0.718844
v -0.810275 -0.606710 -0.384817
v -0.810275 -0.272683 -0.246458
v -0.810275 0.061345 -0.384817
v -0.810275 0.199704 -0.718844
v -0.810275 0.061345 -1.052872
v -0.676942 -0.606710 -1.052872
v -0.676942 -0.272683 -1.191231
v -0.676942 -0.745069 -0.718844
v -0.676942 -0.606710 -0.384817
v -0.676942 -0.272683 -0.246458
v -0.676942 0.061345 -0.384817
v -0.676942 0.199704 -0.718844
v -0.676942 0.061345 -1.052872
v -0.004157 0.457855 -0.935164
v 0.283546 0.680998 -0.139408
v 0.402717 0.318667 -0.258579
v 0.108867 0.504671 -0.018883
v 0.402717 0.680998 0.148295
v 0.571249 0.318667 0.148295
v 0.155683 0.617696 -0.018883
v 0.283546 0.680998 0.435998
v 0.402717 0.318667 0.555168
v 0.108867 0.730720 -0.018883
v -0.004157 0.680998 0.555168
v -0.004157 0.318667 0.723701
v -0.004157 0.777536 -0.018883
v -0.004157 0.814627 0.148295
v -0.291860 0.680998 0.435998
v -0.411031 0.318667 0.555168
v -0.117181 0.730720 -0.018883
v -0.117181 0.504671 -0.935164
v -0.163997 0.617696 -0.935164
v -0.411031 0.680998 0.148295
v -0.579563 0.318667 0.148295
v -0.163997 0.617696 -0.018883
v -0.117181 0.730720 -0.935164
v -0.004157 0.777536 -0.935164
v -0.291860 0.680998 -0.139408
v -0.411031 0.318667 -0.258579
v -0.117181 0.504671 -0.018883
v 0.108867 0.730720 -0.935164
v 0.155683 0.617696 -0.935164
v -0.004157 0.680998 -0.258579
v -0.004157 0.318667 -0.427112
v -0.004157 0.457855 -0.018883
v 0.108867 0.504671 -0.935164
v 0.662510 0.315070 -0.686743
v -0.670824 0.315070 -0.686743
v -0.670824 -0.391410 0.012191
v -0.670824 0.002666 1.268967
v -0.670824 0.205038 -1.178162
v -0.670824 -0.218671 -1.200070
v -0.004157 -0.348225 -0.848111
v -0.004157 0.080286 -1.243487
v 0.662510 -0.218671 -1.200070
v 0.662510 -0.391410 0.012191
v 0.662510 0.426375 0.176401
v 0.662510 0.002666 1.268967
v -0.004157 -0.292891 0.883623
v -0.004157 0.412291 1.066976
v 0.689725 -0.415187 0.017745
v 0.689725 -0.736089 0.338647
v 0.689725 -0.736089 0.792471
v 0.689725 -0.415187 1.113373
v 0.689725 0.038637 1.113373
v 0.689725 0.359539 0.792471
v 0.689725 0.359539 0.338647
v 0.689725 0.038637 0.017745
v 0.823059 -0.415187 0.017745
v 0.823059 -0.736089 0.338647
v 0.823059 -0.736089 0.792471
v 0.823059 -0.415187 1.113373
v 0.823059 0.038637 1.113373
v 0.823059 0.359539 0.792471
v 0.823059 0.359539 0.338647
v 0.823059 0.038637 0.017745
v 0.756392 0.406534 0.565559
v 0.756392 0.232319 0.144966
v 0.756392 -0.188275 1.160368
v 0.756392 0.232319 0.986152
v 0.756392 -0.783084 0.565559
v 0.756392 -0.608868 0.986152
v 0.756392 -0.188275 -0.029250
v 0.756392 -0.608868 0.144965
v 0.689725 -0.457766 -1.165676
v 0.689725 -0.719514 -0.903928
v 0.689725 -0.719514 -0.533761
v 0.689725 -0.457766 -0.272013
v 0.689725 -0.087599 -0.272013
v 0.689725 0.174149 -0.533761
v 0.689725 0.174149 -0.903928
v 0.689725 -0.087599 -1.165676
v 0.823059 -0.457766 -1.165676
v 0.823059 -0.719514 -0.903928
v 0.823059 -0.719514 -0.533761
v 0.823059 -0.457766 -0.272013
v 0.823059 -0.087599 -0.272013
v 0.823059 0.174149 -0.533761
v 0.823059 0.174149 -0.903928
v 0.823059 -0.087599 -1.165676
v 0.756392 0.212481 -0.718844
v 0.756392 0.070380 -1.061907
v 0.756392 -0.272683 -0.233681
v 0.756392 0.070380 -0.375782
v 0.756392 -0.757846 -0.718844
v 0.756392 -0.615745 -0.375782
v 0.756392 -0.272683 -1.204008
v 0.756392 -0.615745 -1.061907
v -0.810275 -0.415187 0.017745
v -0.810275 -0.736089 0.338647
v -0.810275 -0.736089 0.792471
v -0.810275 -0.415187 1.113373
v -0.810275 0.038637 1.113373
v -0.810275 0.359539 0.792471
v -0.810275 0.359539 0.338647
v -0.810275 0.038637 0.017745
v -0.676942 -0.415187 0.017745
v -0.676942 -0.736089 0.338647
v -0.676942 -0.736089 0.792471
v -0.676942 -0.415187 1.113373
v -0.676942 0.038637 1.113373
v -0.676942 0.359539 0.792471
v -0.676942 0.359539 0.338647
v -0.676942 0.038637 0.017745
v -0.743608 0.406534 0.565559
v -0.743608 0.232319 0.144966
v -0.743608 -0.188275 1.160368
v -0.743608 0.232319 0.986152
v -0.743608 -0.783084 0.565559
v -0.743608 -0.608868 0.986152
v -0.743608 -0.188275 -0.029250
v -0.743608 -0.608868 0.144965
v -0.810275 -0.457766 -1.165676
v -0.810275 -0.719514 -0.903928
v -0.810275 -0.719514 -0.533761
v -0.810275 -0.457766 -0.272013
v -0.810275 -0.087599 -0.272013
v -0.810275 0.174149 -0.533761
v -0.810275 0.174149 -0.903928
v -0.810275 -0.087599 -1.165676
v -0.676942 -0.457766 -1.165676
v -0.676942 -0.719514 -0.903928
v -0.676942 -0.719514 -0.533761
v -0.676942 -0.457766 -0.272013
v -0.676942 -0.087599 -0.272013
v -0.676942 0.174149 -0.533761
v -0.676942 0.174149 -0.903928
v -0.676942 -0.087599 -1.165676
v -0.743608 0.212481 -0.718844
v -0.743608 0.070380 -1.061907
v -0.743608 -0.272683 -0.233681
v -0.743608 0.070380 -0.375782
v -0.743608 -0.757846 -0.718844
v -0.743608 -0.615745 -0.375782
v -0.743608 -0.272683 -1.204008
v -0.743608 -0.615745 -1.061907
v 0.372924 0.477561 -0.228786
v -0.120238 0.733777 -0.536192
v 0.529116 0.477561 0.148295
v 0.111924 0.501614 -0.536192
v -0.168321 0.617696 -0.536192
v 0.543161 0.318667 -0.078412
v 0.338195 0.707724 0.006488
v 0.372924 0.477561 0.525376
v -0.120238 0.501614 -0.536192
v -0.004157 0.453532 -0.536192
v 0.543161 0.318667 0.375001
v 0.338195 0.707724 0.290102
v -0.004157 0.477561 0.681568
v 0.160007 0.617696 -0.536192
v 0.111924 0.733777 -0.536192
v 0.222549 0.318667 0.695612
v 0.137650 0.707724 0.490647
v -0.195959 0.781719 0.340097
v -0.381238 0.477561 0.525376
v -0.004157 0.781859 -0.536192
v -0.145964 0.707724 0.490647
v -0.066783 0.466502 -0.935164
v -0.230863 0.318667 0.695612
v -0.537430 0.477561 0.148295
v -0.155350 0.555069 -0.935164
v -0.155350 0.680322 -0.935164
v -0.551475 0.318667 0.375001
v -0.346509 0.707724 0.290102
v -0.381238 0.477561 -0.228786
v -0.066783 0.768889 -0.935164
v 0.058469 0.768889 -0.935164
v -0.551475 0.318667 -0.078412
v -0.346509 0.707724 0.006488
v -0.004157 0.477561 -0.384979
v 0.147036 0.680322 -0.935164
v 0.147036 0.555069 -0.935164
v -0.230863 0.318667 -0.399023
v -0.145964 0.707724 -0.194058
v -0.004157 0.781719 -0.122954
v 0.058469 0.466502 -0.935164
v 0.187645 0.781719 -0.043507
v 0.058469 0.466502 -0.018883
v 0.147036 0.555069 -0.018883
v 0.222549 0.318667 -0.399023
v 0.137650 0.707724 -0.194058
v 0.267092 0.781719 0.148295
v 0.147036 0.680322 -0.018883
v 0.187645 0.781719 0.340097
v 0.058469 0.768889 -0.018883
v -0.004157 0.781719 0.419544
v -0.066783 0.768889 -0.018883
v -0.155350 0.680322 -0.018883
v -0.275406 0.781719 0.148295
v -0.155350 0.555069 -0.018883
v -0.195959 0.781719 -0.043507
v -0.066783 0.466502 -0.018883
v 0.662510 0.205038 -1.178162
v -0.670824 0.426375 0.176401
v -0.004157 0.314751 -0.779674
v -0.004157 0.426375 0.176401
v -0.207594 0.477561 -0.342845
v -0.495297 0.477561 -0.055142
v 0.058469 0.768889 -0.536192
v 0.147036 0.680322 -0.536192
v -0.495297 0.477561 0.351732
v -0.066783 0.466502 -0.536192
v -0.155350 0.555069 -0.536192
v 0.147036 0.555069 -0.536192
v -0.207594 0.477561 0.639435
v -0.155350 0.680322 -0.536192
v 0.058469 0.466502 -0.536192
v 0.199280 0.477561 0.639435
v -0.066783 0.768889 -0.536192
v 0.486983 0.477561 0.351732
v 0.486983 0.477561 -0.055142
v 0.199280 0.477561 -0.342845
v -0.743608 -0.719514 -0.903928
v -0.743608 -0.457766 -0.272013
v -0.743608 0.174149 -0.533761
v -0.743608 -0.087599 -1.165676
v -0.743608 -0.457766 -1.165676
v -0.743608 -0.719514 -0.533761
v -0.743608 -0.087599 -0.272013
v -0.743608 0.174149 -0.903928
v -0.743608 -0.736089 0.338647
v -0.743608 -0.415187 1.113373
v -0.743608 0.359539 0.792471
v -0.743608 0.038637 0.017745
v -0.743608 -0.415187 0.017745
v -0.743608 -0.736089 0.792471
v -0.743608 0.038637 1.113373
v -0.743608 0.359539 0.338647
v 0.756392 -0.719514 -0.903928
v 0.756392 -0.457766 -0.272013
v 0.756392 0.174149 -0.533761
v 0.756392 -0.087599 -1.165676
v 0.756392 -0.457766 -1.165676
v 0.756392 -0.719514 -0.533761
v 0.756392 -0.087599 -0.272013
v 0.756392 0.174149 -0.903928
v 0.756392 -0.736089 0.338647
v 0.756392 -0.415187 1.113373
v 0.756392 0.359539 0.792471
v 0.756392 0.038637 0.017745
v 0.756392 -0.415187 0.017745
v 0.756392 -0.736089 0.792471
v 0.756392 0.038637 1.113373
v 0.756392 0.359539 0.338647
v -0.004157 0.205038 -1.178162
v -0.004157 -0.391410 0.012191
v -0.004157 0.002666 1.268967
v -0.004157 -0.218671 -1.200070
vn -1.0000 0.0000 0.0000
vn 0.0130 -0.1152 -0.9933
vn 1.0000 -0.0000 0.0000
vn -0.0888 0.5530 0.8284
vn 0.0327 -0.9900 0.1369
vn -0.0165 0.9707 -0.2397
vn 0.1150 0.9789 -0.1689
vn 0.1150 0.1689 0.9789
vn 0.1150 -0.9789 0.1689
vn 0.1150 -0.1689 -0.9789
vn 0.1150 0.5727 -0.8116
vn 0.1150 0.8116 0.5727
vn 0.1150 -0.5727 0.8116
vn 0.1150 -0.8116 -0.5727
vn 0.0940 0.9811 -0.1693
vn 0.0940 0.1693 0.9811
vn 0.0940 -0.9811 0.1693
vn 0.0940 -0.1693 -0.9811
vn 0.0940 0.5740 -0.8134
vn 0.0940 0.8134 0.5740
vn 0.0940 -0.5740 0.8134
vn 0.0940 -0.8134 -0.5740
vn 0.4266 0.5450 -0.7217
vn 0.1191 0.7971 -0.5920
vn 0.8120 0.5450 -0.2087
vn 0.5028 0.7971 -0.3344
vn 0.7217 0.5450 0.4266
vn 0.5920 0.7971 0.1191
vn -0.5765 0.8171 -0.0053
vn 0.2087 0.5450 0.8120
vn 0.5765 -0.8171 -0.0053
vn 0.3344 0.7971 0.5028
vn -0.1191 0.7971 0.5920
vn -0.9854 0.1701 -0.0053
vn -0.4266 0.5450 0.7217
vn 0.9854 -0.1701 -0.0053
vn -0.8171 -0.5765 -0.0053
vn -0.5028 0.7971 0.3344
vn -0.1701 -0.9854 -0.0053
vn -0.8120 0.5450 0.2087
vn 0.8171 0.5765 -0.0053
vn -0.5920 0.7971 -0.1191
vn 0.1701 0.9854 -0.0053
vn -0.7217 0.5450 -0.4266
vn 0.0000 0.0000 -1.0000
vn -0.3344 0.7971 -0.5028
vn 0.0000 0.0000 1.0000
vn -0.2087 0.5450 -0.8120
vn -0.0352 0.9985 0.0422
vn 0.0352 0.9985 0.0422
vn 0.0082 0.9925 -0.1216
vn -0.0082 0.9925 -0.1216
vn -0.1536 0.3023 -0.9408
vn -0.5566 0.3023 -0.7738
vn -0.4266 0.5450 -0.7217
vn -0.1191 0.7971 -0.5920
vn -0.2009 0.8511 -0.4850
vn -0.0498 0.9915 -0.1203
vn -0.7738 0.3023 -0.5566
vn -0.9408 0.3023 -0.1536
vn -0.8120 0.5450 -0.2087
vn 0.1701 0.9854 0.0041
vn 0.5765 0.8171 0.0041
vn 0.5765 0.8171 -0.0053
vn -0.5028 0.7971 -0.3344
vn -0.4850 0.8511 -0.2009
vn -0.1203 0.9915 -0.0498
vn 0.8171 0.5765 0.0041
vn 0.9854 0.1701 0.0041
vn 0.9854 0.1701 -0.0053
vn -0.9408 0.3023 0.1536
vn -0.7738 0.3023 0.5566
vn -0.7217 0.5450 0.4266
vn -0.1701 -0.9854 0.0041
vn -0.5765 -0.8171 0.0041
vn -0.5765 -0.8171 -0.0053
vn -0.5920 0.7971 0.1191
vn -0.4850 0.8511 0.2009
vn -0.1203 0.9915 0.0498
vn -0.8171 -0.5765 0.0041
vn -0.9854 -0.1701 0.0041
vn -0.9854 -0.1701 -0.0053
vn 0.9854 -0.1701 0.0041
vn 0.8171 -0.5765 0.0041
vn 0.8171 -0.5765 -0.0053
vn -0.5566 0.3023 0.7738
vn -0.1536 0.3023 0.9408
vn -0.2087 0.5450 0.8120
vn -0.9854 0.1701 0.0041
vn -0.8171 0.5765 0.0041
vn -0.8171 0.5765 -0.0053
vn -0.3344 0.7971 0.5028
vn -0.2009 0.8511 0.4850
vn -0.0498 0.9915 0.1203
vn 0.1191 0.7971 0.5920
vn 0.2009 0.8511 0.4850
vn 0.0498 0.9915 0.1203
vn 0.5765 -0.8171 0.0041
vn 0.1701 -0.9854 0.0041
vn 0.1701 -0.9854 -0.0053
vn 0.1536 0.3023 0.9408
vn 0.5566 0.3023 0.7738
vn 0.4266 0.5450 0.7217
vn -0.5765 0.8171 0.0041
vn -0.1701 0.9854 0.0041
vn -0.1701 0.9854 -0.0053
vn 0.5028 0.7971 0.3344
vn 0.4850 0.8511 0.2009
vn 0.1203 0.9915 0.0498
vn 0.7738 0.3023 0.5566
vn 0.9408 0.3023 0.1536
vn 0.8120 0.5450 0.2087
vn 0.5920 0.7971 -0.1191
vn 0.4850 0.8511 -0.2009
vn 0.1203 0.9915 -0.0498
vn 0.9408 0.3023 -0.1536
vn 0.7738 0.3023 -0.5566
vn 0.7217 0.5450 -0.4266
vn 0.3344 0.7971 -0.5028
vn 0.2009 0.8511 -0.4850
vn 0.0498 0.9915 -0.1203
vn 0.5566 0.3023 -0.7738
vn 0.1536 0.3023 -0.9408
vn 0.2087 0.5450 -0.8120
vn 0.0940 -0.9811 -0.1693
vn -0.0940 -0.9811 -0.1693
vn -0.0940 -0.8134 -0.5740
vn 0.0940 -0.1693 0.9811
vn -0.0940 -0.1693 0.9811
vn -0.0940 -0.5740 0.8134
vn 0.0940 0.9811 0.1693
vn -0.0940 0.9811 0.1693
vn -0.0940 0.8134 0.5740
vn 0.0940 0.1693 -0.9811
vn -0.0940 0.1693 -0.9811
vn -0.0940 0.5740 -0.8134
vn 0.0940 -0.5740 -0.8134
vn -0.0940 -0.5740 -0.8134
vn -0.0940 -0.1693 -0.9811
vn 0.0940 -0.8134 0.5740
vn -0.0940 -0.8134 0.5740
vn -0.0940 -0.9811 0.1693
vn 0.0940 0.5740 0.8134
vn -0.0940 0.5740 0.8134
vn -0.0940 0.1693 0.9811
vn 0.0940 0.8134 -0.5740
vn -0.0940 0.8134 -0.5740
vn -0.0940 0.9811 -0.1693
vn 0.1150 -0.9789 -0.1689
vn -0.1150 -0.9789 -0.1689
vn -0.1150 -0.8116 -0.5727
vn 0.1150 -0.1689 0.9789
vn -0.1150 -0.1689 0.9789
vn -0.1150 -0.5727 0.8116
vn 0.1150 0.9789 0.1689
vn -0.1150 0.9789 0.1689
vn -0.1150 0.8116 0.5727
vn 0.1150 0.1689 -0.9789
vn -0.1150 0.1689 -0.9789
vn -0.1150 0.5727 -0.8116
vn 0.1150 -0.5727 -0.8116
vn -0.1150 -0.5727 -0.8116
vn -0.1150 -0.1689 -0.9789
vn 0.1150 -0.8116 0.5727
vn -0.1150 -0.8116 0.5727
vn -0.1150 -0.9789 0.1689
vn 0.1150 0.5727 0.8116
vn -0.1150 0.5727 0.8116
vn -0.1150 0.1689 0.9789
vn 0.1150 0.8116 -0.5727
vn -0.1150 0.8116 -0.5727
vn -0.1150 0.9789 -0.1689
vn 0.0165 0.9707 -0.2397
vn 0.0140 0.4039 -0.9147
vn -0.0140 0.4039 -0.9147
vn -0.0327 -0.9900 0.1369
vn -0.0147 -0.9980 -0.0615
vn 0.0147 -0.9980 -0.0615
vn -0.0538 -0.8351 0.5474
vn 0.0538 -0.8351 0.5474
vn 0.0888 0.5530 0.8284
vn 0.0291 -0.9547 -0.2962
vn -0.0291 -0.9547 -0.2962
vn -0.0130 -0.1152 -0.9933
usemtl None
s off
f 1//1 109//1 2//1 273//1 107//1 110//1 4//1 111//1 3//1 108//1
f 327//2 113//2 8//2 114//2
f 7//3 114//3 8//3 272//3 106//3 116//3 6//3 117//3 5//3 115//3
f 326//4 119//4 2//4 109//4
f 325//5 115//5 5//5 118//5
f 324//6 110//6 107//6 274//6
f 10//1 121//1 11//1 122//1 12//1 123//1 13//1 124//1 14//1 125//1 15//1 126//1 16//1 127//1 9//1 120//1
f 17//3 128//3 18//3 135//3 24//3 134//3 23//3 133//3 22//3 132//3 21//3 131//3 20//3 130//3 19//3 129//3
f 323//7 136//7 23//7 134//7
f 322//8 138//8 21//8 132//8
f 321//9 140//9 19//9 130//9
f 320//10 142//10 18//10 128//10
f 319//11 137//11 24//11 135//11
f 318//12 139//12 22//12 133//12
f 317//13 141//13 20//13 131//13
f 316//14 143//14 17//14 129//14
f 26//1 145//1 27//1 146//1 28//1 147//1 29//1 148//1 30//1 149//1 31//1 150//1 32//1 151//1 25//1 144//1
f 33//3 152//3 34//3 159//3 40//3 158//3 39//3 157//3 38//3 156//3 37//3 155//3 36//3 154//3 35//3 153//3
f 315//15 160//15 39//15 158//15
f 314//16 162//16 37//16 156//16
f 313//17 164//17 35//17 154//17
f 312//18 166//18 34//18 152//18
f 311//19 161//19 40//19 159//19
f 310//20 163//20 38//20 157//20
f 309//21 165//21 36//21 155//21
f 308//22 167//22 33//22 153//22
f 42//1 169//1 43//1 170//1 44//1 171//1 45//1 172//1 46//1 173//1 47//1 174//1 48//1 175//1 41//1 168//1
f 49//3 176//3 50//3 183//3 56//3 182//3 55//3 181//3 54//3 180//3 53//3 179//3 52//3 178//3 51//3 177//3
f 307//7 184//7 55//7 182//7
f 306//8 186//8 53//8 180//8
f 305//9 188//9 51//9 178//9
f 304//10 190//10 50//10 176//10
f 303//11 185//11 56//11 183//11
f 302//12 187//12 54//12 181//12
f 301//13 189//13 52//13 179//13
f 300//14 191//14 49//14 177//14
f 58//1 193//1 59//1 194//1 60//1 195//1 61//1 196//1 62//1 197//1 63//1 198//1 64//1 199//1 57//1 192//1
f 65//3 200//3 66//3 207//3 72//3 206//3 71//3 205//3 70//3 204//3 69//3 203//3 68//3 202//3 67//3 201//3
f 299//15 208//15 71//15 206//15
f 298//16 210//16 69//16 204//16
f 297//17 212//17 67//17 202//17
f 296//18 214//18 66//18 200//18
f 295//19 209//19 72//19 207//19
f 294//20 211//20 70//20 205//20
f 293//21 213//21 68//21 203//21
f 292//22 215//22 65//22 201//22
f 291//23 260//23 74//23 216//23
f 102//24 254//24 260//24
f 290//25 222//25 77//25 218//25
f 74//26 256//26 222//26
f 289//27 227//27 80//27 223//27
f 77//28 261//28 227//28
f 288//29 245//29 95//29 217//29
f 287//30 232//30 83//30 228//30
f 286//31 255//31 105//31 219//31
f 80//32 263//32 232//32
f 83//33 265//33 236//33
f 285//34 241//34 91//34 220//34
f 284//35 236//35 87//35 234//35
f 283//36 251//36 101//36 229//36
f 282//37 240//37 90//37 224//37
f 87//38 233//38 243//38
f 281//39 237//39 73//39 225//39
f 280//40 243//40 92//40 239//40
f 279//41 250//41 100//41 230//41
f 92//42 268//42 248//42
f 278//43 246//43 96//43 235//43
f 277//44 248//44 97//44 244//44
f 73//45 237//45 90//45 240//45 91//45 241//45 95//45 245//45 96//45 246//45 100//45 250//45 101//45 251//45 105//45 255//45
f 97//46 270//46 253//46
f 104//47 257//47 76//47 258//47 79//47 262//47 82//47 264//47 85//47 266//47 89//47 267//47 94//47 269//47 99//47 271//47
f 276//48 253//48 102//48 249//48
f 275//49 273//49 2//49 119//49
f 116//50 275//50 119//50 6//50
f 106//51 274//51 275//51 116//51
f 274//52 107//52 273//52 275//52
f 252//53 276//53 249//53 103//53
f 98//54 244//54 276//54 252//54
f 244//55 97//55 253//55 276//55
f 253//56 254//56 102//56
f 253//57 270//57 254//57
f 270//58 86//58 254//58
f 247//59 277//59 244//59 98//59
f 93//60 239//60 277//60 247//60
f 239//61 92//61 248//61 277//61
f 264//62 278//62 235//62 85//62
f 82//63 230//63 278//63 264//63
f 230//64 100//64 246//64 278//64
f 248//65 270//65 97//65
f 248//66 268//66 270//66
f 268//67 86//67 270//67
f 262//68 279//68 230//68 82//68
f 79//69 229//69 279//69 262//69
f 229//70 101//70 250//70 279//70
f 242//71 280//71 239//71 93//71
f 88//72 234//72 280//72 242//72
f 234//73 87//73 243//73 280//73
f 271//74 281//74 225//74 104//74
f 99//75 224//75 281//75 271//75
f 224//76 90//76 237//76 281//76
f 243//77 268//77 92//77
f 243//78 233//78 268//78
f 233//79 86//79 268//79
f 269//80 282//80 224//80 99//80
f 94//81 220//81 282//81 269//81
f 220//82 91//82 240//82 282//82
f 258//83 283//83 229//83 79//83
f 76//84 219//84 283//84 258//84
f 219//85 105//85 251//85 283//85
f 238//86 284//86 234//86 88//86
f 84//87 228//87 284//87 238//87
f 228//88 83//88 236//88 284//88
f 267//89 285//89 220//89 94//89
f 89//90 217//90 285//90 267//90
f 217//91 95//91 241//91 285//91
f 236//92 233//92 87//92
f 236//93 265//93 233//93
f 265//94 86//94 233//94
f 232//95 265//95 83//95
f 232//96 263//96 265//96
f 263//97 86//97 265//97
f 257//98 286//98 219//98 76//98
f 104//99 225//99 286//99 257//99
f 225//100 73//100 255//100 286//100
f 231//101 287//101 228//101 84//101
f 81//102 223//102 287//102 231//102
f 223//103 80//103 232//103 287//103
f 266//104 288//104 217//104 89//104
f 85//105 235//105 288//105 266//105
f 235//106 96//106 245//106 288//106
f 227//107 263//107 80//107
f 227//108 261//108 263//108
f 261//109 86//109 263//109
f 226//110 289//110 223//110 81//110
f 78//111 218//111 289//111 226//111
f 218//112 77//112 227//112 289//112
f 222//113 261//113 77//113
f 222//114 256//114 261//114
f 256//115 86//115 261//115
f 221//116 290//116 218//116 78//116
f 75//117 216//117 290//117 221//117
f 216//118 74//118 222//118 290//118
f 260//119 256//119 74//119
f 260//120 254//120 256//120
f 254//121 86//121 256//121
f 259//122 291//122 216//122 75//122
f 103//123 249//123 291//123 259//123
f 249//124 102//124 260//124 291//124
f 212//125 292//125 201//125 67//125
f 59//126 193//126 292//126 212//126
f 193//127 58//127 215//127 292//127
f 210//128 293//128 203//128 69//128
f 61//129 195//129 293//129 210//129
f 195//130 60//130 213//130 293//130
f 208//131 294//131 205//131 71//131
f 63//132 197//132 294//132 208//132
f 197//133 62//133 211//133 294//133
f 214//134 295//134 207//134 66//134
f 57//135 199//135 295//135 214//135
f 199//136 64//136 209//136 295//136
f 215//137 296//137 200//137 65//137
f 58//138 192//138 296//138 215//138
f 192//139 57//139 214//139 296//139
f 213//140 297//140 202//140 68//140
f 60//141 194//141 297//141 213//141
f 194//142 59//142 212//142 297//142
f 211//143 298//143 204//143 70//143
f 62//144 196//144 298//144 211//144
f 196//145 61//145 210//145 298//145
f 209//146 299//146 206//146 72//146
f 64//147 198//147 299//147 209//147
f 198//148 63//148 208//148 299//148
f 188//149 300//149 177//149 51//149
f 43//150 169//150 300//150 188//150
f 169//151 42//151 191//151 300//151
f 186//152 301//152 179//152 53//152
f 45//153 171//153 301//153 186//153
f 171//154 44//154 189//154 301//154
f 184//155 302//155 181//155 55//155
f 47//156 173//156 302//156 184//156
f 173//157 46//157 187//157 302//157
f 190//158 303//158 183//158 50//158
f 41//159 175//159 303//159 190//159
f 175//160 48//160 185//160 303//160
f 191//161 304//161 176//161 49//161
f 42//162 168//162 304//162 191//162
f 168//163 41//163 190//163 304//163
f 189//164 305//164 178//164 52//164
f 44//165 170//165 305//165 189//165
f 170//166 43//166 188//166 305//166
f 187//167 306//167 180//167 54//167
f 46//168 172//168 306//168 187//168
f 172//169 45//169 186//169 306//169
f 185//170 307//170 182//170 56//170
f 48//171 174//171 307//171 185//171
f 174//172 47//172 184//172 307//172
f 164//125 308//125 153//125 35//125
f 27//126 145//126 308//126 164//126
f 145//127 26//127 167//127 308//127
f 162//128 309//128 155//128 37//128
f 29//129 147//129 309//129 162//129
f 147//130 28//130 165//130 309//130
f 160//131 310//131 157//131 39//131
f 31//132 149//132 310//132 160//132
f 149//133 30//133 163//133 310//133
f 166//134 311//134 159//134 34//134
f 25//135 151//135 311//135 166//135
f 151//136 32//136 161//136 311//136
f 167//137 312//137 152//137 33//137
f 26//138 144//138 312//138 167//138
f 144//139 25//139 166//139 312//139
f 165//140 313//140 154//140 36//140
f 28//141 146//141 313//141 165//141
f 146//142 27//142 164//142 313//142
f 163//143 314//143 156//143 38//143
f 30//144 148//144 314//144 163//144
f 148//145 29//145 162//145 314//145
f 161//146 315//146 158//146 40//146
f 32//147 150//147 315//147 161//147
f 150//148 31//148 160//148 315//148
f 140//149 316//149 129//149 19//149
f 11//150 121//150 316//150 140//150
f 121//151 10//151 143//151 316//151
f 138//152 317//152 131//152 21//152
f 13//153 123//153 317//153 138//153
f 123//154 12//154 141//154 317//154
f 136//155 318//155 133//155 23//155
f 15//156 125//156 318//156 136//156
f 125//157 14//157 139//157 318//157
f 142//158 319//158 135//158 18//158
f 9//159 127//159 319//159 142//159
f 127//160 16//160 137//160 319//160
f 143//161 320//161 128//161 17//161
f 10//162 120//162 320//162 143//162
f 120//163 9//163 142//163 320//163
f 141//164 321//164 130//164 20//164
f 12//165 122//165 321//165 141//165
f 122//166 11//166 140//166 321//166
f 139//167 322//167 132//167 22//167
f 14//168 124//168 322//168 139//168
f 124//169 13//169 138//169 322//169
f 137//170 323//170 134//170 24//170
f 16//171 126//171 323//171 137//171
f 126//172 15//172 136//172 323//172
f 272//173 324//173 274//173 106//173
f 8//174 113//174 324//174 272//174
f 113//175 4//175 110//175 324//175
f 108//176 325//176 118//176 1//176
f 3//177 112//177 325//177 108//177
f 112//178 7//178 115//178 325//178
f 118//179 326//179 109//179 1//179
f 5//180 117//180 326//180 118//180
f 117//181 6//181 119//181 326//181
f 112//182 327//182 114//182 7//182
f 3//183 111//183 327//183 112//183
f 111//184 4//184 113//184 327//184
